<svg width="512" height="512" viewBox="0 0 512 512" xmlns="http://www.w3.org/2000/svg">
  <defs>
    <!-- Pin Gradient - Dark Teal -->
    <linearGradient id="pinGradientDark" x1="0" y1="0" x2="0" y2="1">
      <stop offset="0%" stop-color="#0F4C5C"/>
      <stop offset="100%" stop-color="#0B3A47"/>
    </linearGradient>
    
    <!-- Shield Gradient -->
    <linearGradient id="shieldGradientDark" x1="0" y1="0" x2="0" y2="1">
      <stop offset="0%" stop-color="#1E7F8C"/>
      <stop offset="100%" stop-color="#165A64"/>
    </linearGradient>
    
    <!-- Heart Gradient - Gold -->
    <linearGradient id="heartGradientDark" x1="0" y1="0" x2="0" y2="1">
      <stop offset="0%" stop-color="#FFD166"/>
      <stop offset="100%" stop-color="#F4B942"/>
    </linearGradient>
    
    <!-- Soft Shadow Dark -->
    <filter id="shadowDark" x="-20%" y="-20%" width="140%" height="140%">
      <feDropShadow dx="0" dy="6" stdDeviation="12" flood-color="rgba(0,0,0,0.4)"/>
    </filter>
    
    <!-- Premium Glow -->
    <filter id="glowDark" x="-50%" y="-50%" width="200%" height="200%">
      <feGaussianBlur stdDeviation="5" result="blur"/>
      <feMerge>
        <feMergeNode in="blur"/>
        <feMergeNode in="SourceGraphic"/>
      </feMerge>
    </filter>
    
    <!-- Outer Glow for Main Elements -->
    <filter id="outerGlow" x="-100%" y="-100%" width="300%" height="300%">
      <feGaussianBlur stdDeviation="8" result="blur"/>
      <feColorMatrix type="matrix" values="1 0 0 0 0  0 1 0 0 0  0 0 1 0 0  0 0 0 0.5 0"/>
      <feMerge>
        <feMergeNode/>
        <feMergeNode in="SourceGraphic"/>
      </feMerge>
    </filter>
  </defs>

  <!-- Background -->
  <rect width="512" height="512" rx="80" fill="#0B1F2A"/>

  <!-- Subtle Background Pattern -->
  <circle cx="256" cy="256" r="200" fill="none" stroke="#0F4C5C" stroke-width="1" opacity="0.3"/>
  <circle cx="256" cy="256" r="150" fill="none" stroke="#0F4C5C" stroke-width="1" opacity="0.2"/>

  <!-- Signal Waves with Glow -->
  <g filter="url(#glowDark)">
    <path d="M160 95 Q256 50 352 95" stroke="#F4B942" stroke-width="10" fill="none" stroke-linecap="round" opacity="0.9"/>
    <path d="M190 130 Q256 95 322 130" stroke="#F4B942" stroke-width="7" fill="none" stroke-linecap="round" opacity="0.8"/>
  </g>

  <!-- Location Pin with Shadow -->
  <g filter="url(#shadowDark)">
    <path d="M256 130 
             C365 130 410 235 256 400 
             C102 235 147 130 256 130Z" 
          fill="url(#pinGradientDark)"/>
  </g>

  <!-- Pin Edge Highlight -->
  <path d="M256 140 
           C355 140 395 230 256 385 
           C117 230 157 140 256 140Z" 
        fill="none" stroke="#1E7F8C" stroke-width="2" opacity="0.5"/>

  <!-- Inner Pin Glow -->
  <path d="M256 150 
           C345 150 380 225 256 375 
           C132 225 167 150 256 150Z" 
        fill="#0F4C5C" opacity="0.4"/>

  <!-- Shield Shape -->
  <path d="M256 175 
           L330 210 
           L315 305 
           L256 355 
           L197 305 
           L182 210Z" 
        fill="url(#shieldGradientDark)"/>

  <!-- Shield Inner Highlight -->
  <path d="M256 185 
           L320 215 
           L307 298 
           L256 342 
           L205 298 
           L192 215Z" 
        fill="#1E7F8C" opacity="0.3"/>

  <!-- Heart with Glow -->
  <g filter="url(#outerGlow)">
    <path d="M256 295 
             C225 260 190 260 190 295 
             C190 330 256 365 256 365 
             C256 365 322 330 322 295 
             C322 260 287 260 256 295Z" 
          fill="url(#heartGradientDark)"/>
  </g>

  <!-- Protective Hand -->
  <path d="M195 325 
           Q240 280 305 335 
           Q260 375 215 350Z" 
           fill="#1E7F8C" opacity="0.9"/>

  <!-- Hand Highlight -->
  <path d="M200 320 
           Q240 285 295 330 
           Q255 365 215 345Z" 
           fill="#2CB1BC" opacity="0.2"/>

  <!-- Padlock with Glow -->
  <g filter="url(#glowDark)">
    <!-- Lock Body -->
    <rect x="200" y="195" width="36" height="32" rx="8" fill="#F4B942"/>
    <!-- Lock Shackle -->
    <path d="M210 195 L210 180 C210 170 226 170 226 180 L226 195" 
          stroke="#F4B942" stroke-width="6" fill="none" stroke-linecap="round"/>
    <!-- Keyhole -->
    <circle cx="218" cy="208" r="5" fill="#0B3A47"/>
    <rect x="216" y="208" width="4" height="10" rx="2" fill="#0B3A47"/>
  </g>

  <!-- Circular Ripple -->
  <ellipse cx="256" cy="410" rx="80" ry="16" fill="#0F4C5C" opacity="0.5"/>
  <ellipse cx="256" cy="410" rx="60" ry="10" fill="#1E7F8C" opacity="0.4"/>
  <ellipse cx="256" cy="410" rx="40" ry="6" fill="#1E7F8C" opacity="0.3"/>

  <!-- Ambient Glow Effect -->
  <circle cx="256" cy="260" r="120" fill="url(#pinGradientDark)" opacity="0.05" filter="url(#outerGlow)"/>
</svg>